Title                            : I Am Number Four
Year                             : 2011
Genre                            : Action | Sci-Fi | Thriller
iMDB URL                         : http://www.imdb.com/title/tt1464540/

Complete name                    : I.Am.Number.Four.2011.BRRIP.720P.H264-ZEKTORM.mp4
Format                           : MPEG-4
Format profile                   : Base Media
Codec ID                         : isom
File size                        : 2.54 GiB
Duration                         : 1h 49mn
Overall bit rate                 : 3320 Kbps
Subtitles                        : English (Format: srt)

Video
ID                               : 1
Format                           : AVC
Format/Info                      : Advanced Video Codec
Format profile                   : High@L4.0
Format settings, CABAC           : Yes
Format settings, ReFrames        : 9 frames
Codec ID                         : avc1
Codec ID/Info                    : Advanced Video Coding
Duration                         : 1h 49mn
Bit rate mode                    : Variable
Bit rate                         : 2874 Kbps
Width                            : 1280 pixels
Height                           : 688 pixels
Display aspect ratio             : 1.860
Frame rate mode                  : Constant
Frame rate                       : 23.976 fps
Resolution                       : 24 bits
Colorimetry                      : 4:2:0
Scan type                        : Progressive
Bits/(Pixel*Frame)               : 0.136
Stream size                      : 2.20 GiB (87%)
Title                            : Video
Writing library                  : x264

Audio
ID                               : 2
Format                           : AAC
Format/Info                      : Advanced Audio Codec
Format version                   : Version 4
Format profile                   : LC
Format settings, SBR             : No
Codec ID                         : 40
Duration                         : 1h 49mn
Bit rate mode                    : Variable
Bit rate                         : 442 Kbps
Maximum bit rate                 : 542 Kbps
Channel(s)                       : 6 channels
Channel positions                : Front: L C R, Rear: L R, LFE
Sampling rate                    : 48.0 KHz
Resolution                       : 16 bits
Stream size                      : 346 MiB (13%)
Language                         : English



Screenshots:

[img]http://img31.imageshack.us/img31/7713/snapianf1.png[/img]

[img]http://img151.imageshack.us/img151/1582/snapianf2.png[/img]

[img]http://img109.imageshack.us/img109/7816/snapianf3.png[/img]

[img]http://img228.imageshack.us/img228/9121/snapianf4.png[/img]

